<svg t="1720501243515" class="icon" viewBox="0 0 1024 1024" version="1.1" xmlns="http://www.w3.org/2000/svg" p-id="3217" width="200" height="200"><path d="M64 272.96c0.64 25.92 21.76 47.04 48 47.04h46.72v121.28C158.72 497.92 204.8 544 261.76 544h23.04c2.56 0 3.84 2.88 1.92 4.8l-19.84 19.84c-11.52 11.52-18.56 27.2-18.24 43.52A61.76 61.76 0 0 0 310.08 672h17.92c13.44 0 24.32-10.88 24-24.32a24.672 24.672 0 0 0-24.64-23.68h-17.6a12.8 12.8 0 0 1-12.16-8.32c-1.6-4.8-0.32-9.6 2.88-12.8l25.6-25.6c8-8 14.08-16.96 18.56-26.88 1.6-3.84 5.44-6.4 9.92-6.4h65.504a110.72 110.72 0 0 0 14.816 62.72 111.68 111.68 0 0 0 99.52 56l25.6 44.48-87.36 48.64c-34.24 19.2-55.36 55.04-55.36 94.4v48.96c0 14.08 10.24 26.56 24.32 28.48 12.48 1.6 24-5.12 28.8-16.32l18.56-42.24c6.08-13.76 16-21.12 19.84-23.36l131.2-73.6c13.76-7.68 23.36-20.16 27.52-35.2 4.16-15.04 2.24-30.72-5.76-44.48l-37.44-65.6 67.2-38.72A111.04 111.04 0 0 0 736 540.8v114.592c0 61.44 48.96 112.96 110.4 113.6 62.4 0.96 113.6-49.6 113.6-112v-226.88c0-7.68-6.4-14.08-14.08-14.08-27.52 0-49.92 22.4-49.92 49.92v139.2c0 17.6-14.4 32-32 32s-32-14.4-32-32v-165.76c0-142.08-112.64-260.16-254.4-263.36-118.08-2.88-205.76 77.44-253.12 177.6-3.2 6.72-8.32 14.4-17.28 14.4a19.456 19.456 0 0 1-19.2-19.2V192l96-63.68v-22.4c0-5.44-4.48-9.92-9.92-9.92h-54.4C284.48 96 256 119.68 256 154.88c0 2.88-2.24 5.12-5.12 5.12H192.64c-18.88 0-35.2 13.12-39.04 31.68l-2.88 13.12c-2.56 11.2-12.16 19.2-23.68 19.2h-14.08C86.08 224 63.36 246.08 64 272.96z" fill="#F3AD61" p-id="3218"></path><path d="M224 240a16 16 0 1 1-32 0 16 16 0 0 1 32 0zM96 272c0 8.96-7.04 16-16 16V256c8.96 0 16 7.04 16 16z" fill="#1C1C1C" p-id="3219"></path><path d="M288 191.68V192h32.32C355.52 192 384 163.52 384 128.32V128h-32.32C316.48 128 288 156.48 288 191.68z" fill="#B97028" p-id="3220"></path></svg>